<svg width="727" height="226" viewBox="0 0 727 226" fill="none" xmlns="http://www.w3.org/2000/svg">
<path d="M44.728 0.919998C46.0933 0.919998 47.1387 1.32533 47.864 2.136C48.5893 2.94666 48.952 3.90666 48.952 5.016C48.952 6.21067 48.5893 7.27733 47.864 8.216C47.1813 9.15466 46.2213 9.92266 44.984 10.52C43.7893 11.16 42.3173 11.6507 40.568 11.992C38.8187 12.3333 36.792 12.504 34.488 12.504C32.8667 12.504 31.16 12.4187 29.368 12.248C27.576 12.0773 25.7627 11.8853 23.928 11.672C22.0933 11.4587 20.28 11.2667 18.488 11.096C16.696 10.9253 15.0107 10.84 13.432 10.84C12.024 10.84 10.6587 10.9253 9.336 11.096C8.01333 11.224 6.968 11.5013 6.2 11.928C7.05333 12.2693 7.75733 12.8667 8.312 13.72C8.90933 14.5733 9.208 15.5547 9.208 16.664C9.208 17.9013 8.80267 19.0107 7.992 19.992C7.224 20.9307 6.15733 21.4 4.792 21.4C3.512 21.4 2.53067 20.9733 1.848 20.12C1.16533 19.2667 0.824 18.2427 0.824 17.048C0.824 16.0667 1.08 15.0427 1.592 13.976C2.14667 12.8667 3.192 11.928 4.728 11.16C5.70933 10.6907 6.75467 10.3493 7.864 10.136C8.97333 9.92266 10.0187 9.79467 11 9.752C11.9813 9.70933 12.7493 9.688 13.304 9.688C15.9067 9.688 18.424 9.816 20.856 10.072C23.288 10.328 25.6773 10.584 28.024 10.84C30.3707 11.096 32.696 11.224 35 11.224C36.792 11.224 38.2853 11.1387 39.48 10.968C40.7173 10.7547 41.8053 10.4347 42.744 10.008L42.616 10.52C42.0613 10.008 41.528 9.34667 41.016 8.536C40.5467 7.68266 40.312 6.70133 40.312 5.592C40.312 4.312 40.696 3.224 41.464 2.328C42.2747 1.38933 43.3627 0.919998 44.728 0.919998ZM21.432 10.904C21.432 10.904 21.7093 10.9253 22.264 10.968C22.8613 11.0107 23.5867 11.0747 24.44 11.16C25.2933 11.2453 26.1467 11.3307 27 11.416C27.8533 11.5013 28.5573 11.5653 29.112 11.608C29.6667 11.6507 29.944 11.672 29.944 11.672L20.472 47.576C20.0453 49.1547 19.8747 50.3707 19.96 51.224C20.088 52.0773 20.5573 52.696 21.368 53.08C22.2213 53.4213 23.5227 53.6347 25.272 53.72L25.016 55C23.736 54.9147 22.0933 54.872 20.088 54.872C18.1253 54.8293 16.0773 54.808 13.944 54.808C11.8533 54.808 9.848 54.8293 7.928 54.872C6.008 54.872 4.472 54.9147 3.32 55L3.576 53.72C5.368 53.6347 6.75467 53.4213 7.736 53.08C8.76 52.696 9.54933 52.0773 10.104 51.224C10.7013 50.328 11.2347 49.112 11.704 47.576L21.432 10.904ZM54.5745 32.344C56.1958 32.3867 57.4972 32.4507 58.4785 32.536C59.5025 32.6213 60.3345 32.7067 60.9745 32.792C61.6572 32.8347 62.3185 32.92 62.9585 33.048C64.6225 33.2187 66.1158 33.4747 67.4385 33.816C68.7612 34.1147 69.8918 34.584 70.8305 35.224C71.7692 35.864 72.4518 36.696 72.8785 37.72C73.3052 38.744 73.4118 40.0667 73.1985 41.688L72.4945 48.28C72.3238 49.6027 72.3665 50.7333 72.6225 51.672C72.9212 52.6107 73.5398 53.0587 74.4785 53.016C75.2892 52.9733 75.9932 52.5467 76.5905 51.736C77.1878 50.8827 77.7638 49.688 78.3185 48.152L78.6385 47.256H80.1105L79.8545 48.088C79.0865 50.7333 77.9985 52.696 76.5905 53.976C75.1825 55.256 73.2625 55.896 70.8305 55.896C68.1425 55.896 66.2225 55.2347 65.0705 53.912C63.9185 52.5467 63.4705 50.8613 63.7265 48.856L64.4945 41.688C64.7078 39.7253 64.6012 38.1467 64.1745 36.952C63.7905 35.7147 62.8518 34.8187 61.3585 34.264C59.9078 33.6667 57.6038 33.368 54.4465 33.368L54.5745 32.344ZM53.6785 33.304L53.9985 32.152H56.3665C58.7985 32.152 60.9318 31.832 62.7665 31.192C64.6438 30.5093 66.2225 29.5493 67.5025 28.312C68.7825 27.0747 69.7425 25.5813 70.3825 23.832C71.0652 22.0827 71.4065 20.12 71.4065 17.944C71.4065 15.5547 70.8732 13.8053 69.8065 12.696C68.7398 11.544 67.0545 10.968 64.7505 10.968C63.2572 10.968 62.1692 11.288 61.4865 11.928C60.8465 12.5253 60.2918 13.7413 59.8225 15.576L51.1185 48.216C50.7772 49.5387 50.5852 50.584 50.5425 51.352C50.4998 52.12 50.7985 52.696 51.4385 53.08C52.1212 53.464 53.2732 53.6773 54.8945 53.72L54.6385 55C53.4865 54.9147 52.0998 54.872 50.4785 54.872C48.8572 54.8293 47.1292 54.808 45.2945 54.808C43.4172 54.808 41.5825 54.8293 39.7905 54.872C38.0412 54.872 36.6332 54.9147 35.5665 55L35.8225 53.72C37.2732 53.6347 38.4038 53.464 39.2145 53.208C40.0252 52.952 40.6652 52.44 41.1345 51.672C41.6038 50.904 42.0305 49.752 42.4145 48.216L50.8625 16.472C51.2038 15.1493 51.3745 14.104 51.3745 13.336C51.3745 12.5253 51.0545 11.9493 50.4145 11.608C49.7745 11.224 48.6652 11.0107 47.0865 10.968L47.4065 9.688C48.0892 9.73067 48.9425 9.77333 49.9665 9.816C50.9905 9.816 52.0785 9.83733 53.2305 9.88C54.4252 9.88 55.5132 9.88 56.4945 9.88C58.3292 9.88 59.9932 9.85866 61.4865 9.816C63.0225 9.77333 64.5372 9.752 66.0305 9.752C70.9372 9.752 74.5638 10.52 76.9105 12.056C79.2572 13.5493 80.4305 15.768 80.4305 18.712C80.4305 21.6133 79.4065 24.152 77.3585 26.328C75.3532 28.504 72.5372 30.2107 68.9105 31.448C65.2838 32.6427 61.0598 33.24 56.2385 33.24L53.6785 33.304ZM96.4505 32.856L96.7705 31.576H108.867L108.547 32.856H96.4505ZM103.107 31.576C104.344 31.576 105.411 31.3413 106.307 30.872C107.245 30.36 108.035 29.6987 108.675 28.888C109.357 28.0773 109.933 27.224 110.403 26.328C110.915 25.3893 111.341 24.4933 111.683 23.64H113.091C112.408 25.7733 111.917 27.4373 111.619 28.632C111.32 29.8267 111 31.0213 110.659 32.216C110.488 32.984 110.296 33.7307 110.083 34.456C109.912 35.1813 109.72 36.0347 109.507 37.016C109.336 37.9973 109.101 39.256 108.803 40.792H107.331C107.416 39.896 107.459 38.9787 107.459 38.04C107.459 37.1013 107.309 36.248 107.011 35.48C106.755 34.712 106.264 34.0933 105.539 33.624C104.856 33.112 103.853 32.856 102.531 32.856L103.107 31.576ZM120.131 21.208C120.429 18.6907 120.429 16.7067 120.131 15.256C119.832 13.7627 119.171 12.7173 118.147 12.12C117.123 11.48 115.587 11.16 113.539 11.16H110.659C109.208 11.16 108.077 11.288 107.267 11.544C106.499 11.7573 105.88 12.248 105.411 13.016C104.984 13.7413 104.557 14.8933 104.131 16.472L95.6185 48.216C95.2345 49.752 95.0638 50.904 95.1065 51.672C95.1492 52.44 95.5118 52.952 96.1945 53.208C96.8772 53.4213 97.9438 53.528 99.3945 53.528H102.531C104.963 53.528 106.968 53.1653 108.547 52.44C110.125 51.7147 111.512 50.5413 112.707 48.92C113.901 47.256 115.075 45.016 116.227 42.2H117.635C117.421 42.7547 117.187 43.4373 116.931 44.248C116.717 45.0587 116.504 45.912 116.291 46.808C116.077 47.6187 115.8 48.792 115.458 50.328C115.117 51.8213 114.819 53.3787 114.562 55C112.387 54.9147 109.933 54.872 107.203 54.872C104.515 54.8293 102.104 54.808 99.9705 54.808C98.9465 54.808 97.6452 54.808 96.0665 54.808C94.4878 54.808 92.7598 54.8293 90.8825 54.872C89.0478 54.872 87.1918 54.8933 85.3145 54.936C83.4372 54.936 81.6665 54.9573 80.0025 55L80.2585 53.72C81.7092 53.6347 82.8398 53.464 83.6505 53.208C84.4612 52.952 85.1012 52.44 85.5705 51.672C86.0398 50.904 86.4665 49.752 86.8505 48.216L95.3625 16.472C95.7892 14.8933 95.9598 13.7413 95.8745 13.016C95.8318 12.248 95.4692 11.736 94.7865 11.48C94.1465 11.1813 93.1012 11.0107 91.6505 10.968L91.9705 9.688C93.6345 9.73067 95.4052 9.77333 97.2825 9.816C99.1598 9.816 101.016 9.83733 102.851 9.88C104.728 9.88 106.456 9.88 108.035 9.88C109.613 9.88 110.915 9.88 111.939 9.88C113.859 9.88 116.013 9.88 118.403 9.88C120.792 9.83733 122.968 9.77333 124.931 9.688C124.376 11.1813 123.885 12.568 123.459 13.848C123.075 15.0853 122.755 16.216 122.499 17.24C122.285 18.008 122.093 18.7547 121.923 19.48C121.795 20.1627 121.688 20.7387 121.603 21.208H120.131ZM155.401 55.32L139.593 17.56C139.593 17.56 139.55 17.5173 139.465 17.432C139.422 17.304 139.358 17.176 139.273 17.048C139.187 16.8773 139.123 16.7493 139.081 16.664C139.038 16.536 139.017 16.472 139.017 16.472C139.358 14.8933 139.465 13.7413 139.337 13.016C139.251 12.248 138.825 11.736 138.057 11.48C137.331 11.1813 136.137 11.0107 134.473 10.968L134.793 9.688C135.475 9.73067 136.307 9.77333 137.289 9.816C138.313 9.85866 139.379 9.88 140.489 9.88C142.494 9.88 144.222 9.816 145.673 9.688L158.729 42.456C158.729 42.456 158.686 42.776 158.601 43.416C158.515 44.0133 158.387 44.8027 158.217 45.784C158.089 46.7227 157.939 47.7467 157.769 48.856C157.598 49.9653 157.427 51.0107 157.257 51.992C157.129 52.9733 157.022 53.784 156.937 54.424C156.851 55.0213 156.809 55.32 156.809 55.32H155.401ZM174.985 7.96C173.833 8.00267 172.809 8.344 171.913 8.984C171.059 9.58133 170.313 10.3707 169.673 11.352C167.71 14.2533 165.705 19.352 163.657 26.648C161.609 33.944 159.326 43.5013 156.809 55.32L155.913 53.528C156.553 50.6693 157.235 47.5973 157.961 44.312C158.686 40.984 159.454 37.656 160.265 34.328C161.118 31 161.971 27.8213 162.825 24.792C163.721 21.7627 164.638 19.0533 165.577 16.664C166.558 14.232 167.539 12.2907 168.521 10.84C169.331 9.688 170.291 8.728 171.401 7.96C172.51 7.14933 173.854 6.744 175.433 6.744C177.225 6.744 178.547 7.21333 179.401 8.152C180.254 9.048 180.681 10.136 180.681 11.416C180.681 12.9093 180.211 14.2107 179.273 15.32C178.334 16.3867 177.097 16.92 175.561 16.92C174.323 16.92 173.385 16.5787 172.745 15.896C172.147 15.2133 171.849 14.424 171.849 13.528C171.849 12.2907 172.211 11.2027 172.937 10.264C173.705 9.32533 174.643 8.64267 175.753 8.216C175.625 8.13066 175.497 8.06666 175.369 8.024C175.283 7.98133 175.155 7.96 174.985 7.96ZM123.081 58.52C124.275 58.4773 125.299 58.136 126.153 57.496C127.049 56.8987 127.838 56.088 128.521 55.064C129.758 53.1013 130.995 50.0293 132.233 45.848C133.513 41.6667 134.793 36.6107 136.073 30.68C137.395 24.7493 138.718 18.2427 140.041 11.16L141.128 12.504C140.446 16.0027 139.721 19.5653 138.953 23.192C138.227 26.776 137.481 30.296 136.713 33.752C135.945 37.1653 135.155 40.344 134.345 43.288C133.534 46.232 132.723 48.792 131.913 50.968C131.102 53.1013 130.313 54.68 129.545 55.704C128.777 56.728 127.859 57.6453 126.793 58.456C125.769 59.3093 124.403 59.736 122.697 59.736C120.862 59.736 119.518 59.2667 118.664 58.328C117.811 57.432 117.384 56.3227 117.384 55C117.384 53.5493 117.854 52.2907 118.792 51.224C119.731 50.1147 120.969 49.56 122.505 49.56C123.784 49.56 124.723 49.9013 125.321 50.584C125.918 51.2667 126.217 52.056 126.217 52.952C126.217 54.1893 125.833 55.2773 125.065 56.216C124.339 57.1547 123.443 57.8373 122.377 58.264C122.462 58.3493 122.569 58.4133 122.697 58.456C122.825 58.4987 122.953 58.52 123.081 58.52ZM221.171 24.6C221.171 27.544 220.723 30.4667 219.827 33.368C218.974 36.2693 217.694 39.0213 215.987 41.624C214.28 44.2267 212.168 46.5307 209.651 48.536C207.134 50.5413 204.232 52.12 200.947 53.272C197.704 54.424 194.056 55 190.003 55C189.363 55 188.531 54.9787 187.507 54.936C186.483 54.8933 185.374 54.872 184.179 54.872C183.027 54.8293 181.832 54.808 180.595 54.808C179.614 54.808 178.547 54.8293 177.395 54.872C176.243 54.872 175.155 54.8933 174.131 54.936C173.15 54.936 172.318 54.9573 171.635 55L171.827 53.72C173.192 53.6347 174.259 53.464 175.027 53.208C175.838 52.952 176.478 52.44 176.947 51.672C177.416 50.904 177.843 49.752 178.227 48.216L186.611 16.472C186.952 15.192 187.102 14.168 187.059 13.4C187.059 12.5893 186.739 11.992 186.099 11.608C185.502 11.224 184.435 11.0107 182.899 10.968L183.091 9.688C183.816 9.73067 184.712 9.77333 185.779 9.816C186.846 9.85866 187.976 9.88 189.171 9.88C190.408 9.88 191.582 9.88 192.691 9.88C193.502 9.83733 194.504 9.816 195.699 9.816C196.894 9.77333 198.088 9.752 199.283 9.752C200.478 9.70933 201.48 9.688 202.291 9.688C208.435 9.688 213.107 10.9467 216.307 13.464C219.55 15.9813 221.171 19.6933 221.171 24.6ZM189.747 53.848C192.691 53.848 195.336 53.272 197.683 52.12C200.072 50.968 202.163 49.368 203.955 47.32C205.79 45.272 207.304 42.9253 208.499 40.28C209.736 37.6347 210.654 34.8187 211.251 31.832C211.891 28.8027 212.211 25.7733 212.211 22.744C212.211 18.8187 211.315 15.8533 209.523 13.848C207.731 11.8427 204.808 10.84 200.755 10.84C199.603 10.84 198.707 10.9893 198.067 11.288C197.427 11.544 196.915 12.0773 196.531 12.888C196.147 13.656 195.763 14.808 195.379 16.344L186.995 48.344C186.611 49.6667 186.376 50.7333 186.291 51.544C186.248 52.3547 186.483 52.952 186.995 53.336C187.507 53.6773 188.424 53.848 189.747 53.848ZM246.314 48.216C245.93 49.752 245.802 50.904 245.93 51.672C246.101 52.44 246.549 52.952 247.274 53.208C248.042 53.464 249.151 53.6347 250.602 53.72L250.282 55C249.557 54.9573 248.639 54.936 247.53 54.936C246.421 54.8933 245.226 54.872 243.946 54.872C242.709 54.8293 241.493 54.808 240.298 54.808C238.378 54.808 236.543 54.8293 234.794 54.872C233.087 54.872 231.701 54.9147 230.634 55L230.954 53.72C232.405 53.6347 233.535 53.464 234.346 53.208C235.157 52.952 235.797 52.44 236.266 51.672C236.735 50.904 237.162 49.752 237.546 48.216L241.962 30.68L245.482 34.712L249.13 33.496L251.306 28.376L246.314 48.216ZM267.434 10.008C266.751 10.0507 266.111 10.2 265.514 10.456C264.917 10.6693 264.298 11.0107 263.658 11.48C262.378 12.4187 260.863 13.9973 259.114 16.216C257.407 18.4347 255.637 21.336 253.802 24.92C251.967 28.4613 250.239 32.728 248.618 37.72L241.514 38.04C241.343 36.0773 241.109 33.9653 240.81 31.704C240.554 29.4427 240.213 27.224 239.786 25.048C239.402 22.872 238.911 20.888 238.314 19.096C237.759 17.2613 237.098 15.8107 236.33 14.744C235.605 13.6347 234.751 13.08 233.77 13.08C233.002 13.08 232.383 13.3573 231.914 13.912C231.445 14.424 231.061 15.1493 230.762 16.088L229.226 20.568C229.226 20.568 228.991 20.568 228.522 20.568C228.053 20.568 227.818 20.568 227.818 20.568L229.674 15.192C230.442 12.888 231.466 11.2453 232.746 10.264C234.069 9.28266 235.733 8.792 237.738 8.792C240.469 8.792 242.581 9.70933 244.074 11.544C245.567 13.3787 246.698 16.024 247.466 19.48C248.277 22.8933 248.938 26.968 249.45 31.704C250.943 27.6507 252.629 24.0453 254.506 20.888C256.426 17.688 258.389 15 260.394 12.824C261.375 11.7573 262.527 10.8187 263.85 10.008C265.173 9.19733 266.559 8.792 268.01 8.792C269.759 8.792 271.061 9.304 271.914 10.328C272.767 11.3093 273.173 12.4613 273.13 13.784C273.13 15.1067 272.661 16.3013 271.722 17.368C270.783 18.4347 269.546 18.968 268.01 18.968C266.73 18.968 265.77 18.6267 265.13 17.944C264.533 17.2613 264.255 16.408 264.298 15.384C264.298 14.232 264.661 13.208 265.386 12.312C266.154 11.3733 267.071 10.6907 268.138 10.264C268.053 10.1787 267.946 10.1147 267.818 10.072C267.69 10.0293 267.562 10.008 267.434 10.008ZM172.205 118.24L172.461 116.96H185.645L185.325 118.24H172.205ZM195.181 108.128C195.565 105.141 195.608 102.773 195.309 101.024C195.053 99.2747 194.349 98.0373 193.197 97.312C192.088 96.544 190.381 96.16 188.077 96.16H185.965C184.6 96.16 183.533 96.288 182.765 96.544C181.997 96.7573 181.4 97.248 180.973 98.016C180.546 98.7413 180.12 99.8933 179.693 101.472L171.181 133.216C170.797 134.752 170.669 135.904 170.797 136.672C170.925 137.44 171.416 137.952 172.269 138.208C173.122 138.464 174.445 138.635 176.237 138.72L175.917 140C174.68 139.915 173.08 139.872 171.117 139.872C169.154 139.829 167.17 139.808 165.165 139.808C163.202 139.808 161.368 139.829 159.661 139.872C157.954 139.872 156.589 139.915 155.565 140L155.821 138.72C157.272 138.635 158.402 138.464 159.213 138.208C160.024 137.952 160.664 137.44 161.133 136.672C161.602 135.904 162.029 134.752 162.413 133.216L170.925 101.472C171.352 99.8933 171.522 98.7413 171.437 98.016C171.394 97.248 171.032 96.736 170.349 96.48C169.709 96.1813 168.664 96.0107 167.213 95.968L167.533 94.688C169.197 94.7307 170.968 94.7733 172.845 94.816C174.722 94.816 176.578 94.8373 178.413 94.88C180.29 94.88 182.018 94.88 183.597 94.88C185.176 94.88 186.477 94.88 187.501 94.88C189.421 94.88 191.576 94.88 193.965 94.88C196.354 94.8373 198.53 94.7733 200.493 94.688C199.938 96.2667 199.426 97.7173 198.957 99.04C198.53 100.363 198.189 101.557 197.933 102.624C197.634 103.691 197.378 104.693 197.165 105.632C196.952 106.571 196.76 107.403 196.589 108.128H195.181ZM179.053 116.96C180.29 116.96 181.357 116.725 182.253 116.256C183.149 115.744 183.917 115.104 184.557 114.336C185.24 113.568 185.837 112.715 186.349 111.776C186.861 110.837 187.288 109.92 187.629 109.024H189.101C188.376 111.157 187.864 112.821 187.565 114.016C187.266 115.211 186.968 116.405 186.669 117.6C186.37 118.752 186.072 120.032 185.773 121.44C185.474 122.805 185.09 124.64 184.621 126.944H183.149C183.234 125.749 183.256 124.64 183.213 123.616C183.213 122.549 183.064 121.611 182.765 120.8C182.509 119.989 182.04 119.371 181.357 118.944C180.674 118.475 179.736 118.24 178.541 118.24L179.053 116.96ZM196.288 130.4C194.88 132.405 194.091 134.005 193.92 135.2C193.792 136.395 194.176 137.269 195.072 137.824C196.011 138.336 197.333 138.635 199.04 138.72L198.784 140C197.163 139.915 195.691 139.872 194.368 139.872C193.088 139.829 191.872 139.808 190.72 139.808C189.739 139.808 188.907 139.829 188.224 139.872C187.541 139.872 186.859 139.915 186.176 140L186.496 138.72C187.179 138.549 187.861 138.251 188.544 137.824C189.227 137.355 189.973 136.693 190.784 135.84C191.552 134.944 192.448 133.771 193.472 132.32L220.48 94.368C220.864 94.4107 221.269 94.432 221.696 94.432C222.165 94.432 222.592 94.4107 222.976 94.368L225.536 134.624C225.664 136.16 226.048 137.227 226.688 137.824C227.371 138.379 228.032 138.677 228.672 138.72L228.416 140C227.392 139.915 226.069 139.872 224.448 139.872C222.869 139.829 221.355 139.808 219.904 139.808C218.112 139.808 216.405 139.829 214.784 139.872C213.163 139.872 211.883 139.915 210.944 140L211.2 138.72C213.248 138.635 214.699 138.272 215.552 137.632C216.405 136.949 216.789 135.52 216.704 133.344L215.04 103.136L216.704 101.6L196.288 130.4ZM201.984 121.568H220.672L220.16 122.848H200.832L201.984 121.568ZM271.97 94.24C271.543 95.3493 270.967 96.9707 270.242 99.104C269.559 101.195 268.877 103.925 268.194 107.296H266.914C267.042 106.699 267.127 106.08 267.17 105.44C267.255 104.8 267.298 104.224 267.298 103.712C267.298 102.048 266.957 100.597 266.274 99.36C265.634 98.08 264.631 97.0773 263.266 96.352C261.943 95.584 260.237 95.2 258.146 95.2C255.885 95.2 253.965 95.7973 252.386 96.992C250.807 98.144 250.018 100 250.018 102.56C250.018 104.139 250.381 105.632 251.106 107.04C251.874 108.405 252.834 109.749 253.986 111.072C255.181 112.352 256.439 113.653 257.762 114.976C259.085 116.256 260.322 117.579 261.474 118.944C262.626 120.309 263.565 121.76 264.29 123.296C265.058 124.789 265.442 126.432 265.442 128.224C265.442 130.485 264.887 132.427 263.778 134.048C262.711 135.627 261.325 136.928 259.618 137.952C257.911 138.933 256.055 139.659 254.05 140.128C252.087 140.64 250.167 140.896 248.29 140.896C246.37 140.896 244.77 140.747 243.49 140.448C242.253 140.192 241.207 139.829 240.354 139.36C239.501 138.891 238.669 138.421 237.858 137.952C237.431 137.611 237.005 137.376 236.578 137.248C236.194 137.077 235.874 136.992 235.618 136.992C235.063 136.992 234.594 137.269 234.21 137.824C233.869 138.336 233.442 139.211 232.93 140.448H231.65C232.034 139.509 232.439 138.421 232.866 137.184C233.293 135.947 233.762 134.368 234.274 132.448C234.786 130.485 235.362 128.032 236.002 125.088H237.282C237.111 125.899 236.962 126.752 236.834 127.648C236.706 128.501 236.663 129.355 236.706 130.208C236.834 133.195 237.751 135.499 239.458 137.12C241.207 138.741 243.767 139.552 247.138 139.552C249.997 139.552 252.151 138.955 253.602 137.76C255.053 136.523 255.778 134.731 255.778 132.384C255.778 130.592 255.437 128.971 254.754 127.52C254.114 126.027 253.261 124.64 252.194 123.36C251.127 122.08 249.997 120.821 248.802 119.584C247.607 118.347 246.477 117.088 245.41 115.808C244.343 114.485 243.469 113.077 242.786 111.584C242.103 110.048 241.762 108.341 241.762 106.464C241.762 104.331 242.21 102.475 243.106 100.896C244.045 99.3173 245.239 98.016 246.69 96.992C248.183 95.9253 249.826 95.136 251.618 94.624C253.41 94.0693 255.181 93.792 256.93 93.792C259.234 93.792 261.133 94.0693 262.626 94.624C264.119 95.1787 265.399 95.84 266.466 96.608C266.935 96.9067 267.341 97.1627 267.682 97.376C268.066 97.5467 268.365 97.632 268.578 97.632C269.175 97.632 269.879 96.5013 270.69 94.24H271.97ZM284.781 117.856L285.229 116.576H307.821L307.309 117.856H284.781ZM309.613 101.472C310.04 99.8933 310.21 98.7413 310.125 98.016C310.082 97.248 309.72 96.736 309.037 96.48C308.354 96.1813 307.288 96.0107 305.837 95.968L306.157 94.688C307.266 94.7307 308.674 94.7733 310.381 94.816C312.088 94.8587 313.816 94.88 315.565 94.88C317.528 94.88 319.362 94.8587 321.069 94.816C322.818 94.7733 324.226 94.7307 325.293 94.688L324.973 95.968C323.522 96.0107 322.392 96.1813 321.581 96.48C320.77 96.736 320.13 97.248 319.661 98.016C319.234 98.7413 318.808 99.8933 318.381 101.472L309.933 133.216C309.549 134.752 309.378 135.904 309.421 136.672C309.464 137.44 309.826 137.952 310.509 138.208C311.192 138.464 312.258 138.635 313.709 138.72L313.453 140C312.429 139.915 311.042 139.872 309.293 139.872C307.586 139.829 305.752 139.808 303.789 139.808C302.04 139.808 300.312 139.829 298.605 139.872C296.898 139.872 295.469 139.915 294.317 140L294.573 138.72C296.024 138.635 297.154 138.464 297.965 138.208C298.776 137.952 299.416 137.44 299.885 136.672C300.354 135.904 300.781 134.752 301.165 133.216L309.613 101.472ZM283.181 133.216C282.797 134.752 282.626 135.904 282.669 136.672C282.712 137.44 283.074 137.952 283.757 138.208C284.44 138.464 285.506 138.635 286.957 138.72L286.701 140C285.592 139.915 284.184 139.872 282.477 139.872C280.77 139.829 279.042 139.808 277.293 139.808C275.33 139.808 273.496 139.829 271.789 139.872C270.125 139.872 268.738 139.915 267.629 140L267.949 138.72C269.357 138.635 270.445 138.464 271.213 138.208C272.024 137.952 272.664 137.44 273.133 136.672C273.602 135.904 274.029 134.752 274.413 133.216L282.861 101.472C283.288 99.8933 283.458 98.7413 283.373 98.016C283.288 97.248 282.904 96.736 282.221 96.48C281.581 96.1813 280.536 96.0107 279.085 95.968L279.405 94.688C280.429 94.7307 281.794 94.7733 283.501 94.816C285.25 94.8587 287.106 94.88 289.069 94.88C290.818 94.88 292.525 94.8587 294.189 94.816C295.896 94.7733 297.346 94.7307 298.541 94.688L298.221 95.968C296.77 96.0107 295.64 96.1813 294.829 96.48C294.018 96.736 293.378 97.248 292.909 98.016C292.482 98.7413 292.056 99.8933 291.629 101.472L283.181 133.216ZM333.806 133.216C333.422 134.752 333.251 135.904 333.294 136.672C333.337 137.44 333.699 137.952 334.382 138.208C335.065 138.464 336.131 138.635 337.582 138.72L337.326 140C336.217 139.915 334.787 139.872 333.038 139.872C331.289 139.829 329.497 139.808 327.662 139.808C325.742 139.808 323.95 139.829 322.286 139.872C320.665 139.872 319.321 139.915 318.254 140L318.574 138.72C319.982 138.635 321.07 138.464 321.838 138.208C322.649 137.952 323.289 137.44 323.758 136.672C324.227 135.904 324.654 134.752 325.038 133.216L333.486 101.472C333.913 99.8933 334.083 98.7413 333.998 98.016C333.913 97.248 333.529 96.736 332.846 96.48C332.206 96.1813 331.161 96.0107 329.71 95.968L330.03 94.688C331.054 94.7307 332.398 94.7733 334.062 94.816C335.726 94.8587 337.518 94.88 339.438 94.88C341.273 94.88 343.043 94.8587 344.75 94.816C346.457 94.7733 347.929 94.7307 349.166 94.688L348.846 95.968C347.395 96.0107 346.265 96.1813 345.454 96.48C344.643 96.736 344.003 97.248 343.534 98.016C343.107 98.7413 342.681 99.8933 342.254 101.472L333.806 133.216ZM375.03 94.944C373.195 94.944 371.382 95.5413 369.59 96.736C367.84 97.888 366.198 99.5093 364.662 101.6C363.168 103.648 361.846 106.016 360.694 108.704C359.542 111.349 358.624 114.187 357.942 117.216C357.302 120.245 356.982 123.296 356.982 126.368C356.982 130.549 357.686 133.835 359.094 136.224C360.502 138.571 362.315 139.744 364.534 139.744C366.368 139.744 368.16 139.168 369.91 138.016C371.702 136.821 373.344 135.2 374.838 133.152C376.374 131.061 377.718 128.693 378.87 126.048C380.022 123.36 380.918 120.501 381.558 117.472C382.24 114.443 382.582 111.392 382.582 108.32C382.582 104.139 381.878 100.875 380.47 98.528C379.062 96.1387 377.248 94.944 375.03 94.944ZM347.382 125.536C347.382 122.72 347.808 119.819 348.661 116.832C349.515 113.845 350.752 110.987 352.374 108.256C353.995 105.525 355.958 103.072 358.262 100.896C360.608 98.72 363.232 96.992 366.134 95.712C369.035 94.432 372.192 93.792 375.606 93.792C380.811 93.792 384.886 95.136 387.83 97.824C390.774 100.469 392.246 104.267 392.246 109.216C392.246 112.032 391.798 114.933 390.902 117.92C390.048 120.864 388.811 123.701 387.19 126.432C385.568 129.163 383.584 131.616 381.238 133.792C378.934 135.968 376.31 137.696 373.366 138.976C370.464 140.256 367.328 140.896 363.958 140.896C358.752 140.896 354.678 139.573 351.734 136.928C348.832 134.24 347.382 130.443 347.382 125.536ZM422.901 140.32L407.093 102.56C407.093 102.56 407.05 102.517 406.965 102.432C406.922 102.304 406.858 102.176 406.773 102.048C406.687 101.877 406.623 101.749 406.581 101.664C406.538 101.536 406.517 101.472 406.517 101.472C406.858 99.8933 406.965 98.7413 406.837 98.016C406.751 97.248 406.325 96.736 405.557 96.48C404.831 96.1813 403.637 96.0107 401.973 95.968L402.293 94.688C402.975 94.7307 403.807 94.7733 404.789 94.816C405.813 94.8587 406.879 94.88 407.989 94.88C409.994 94.88 411.722 94.816 413.173 94.688L426.229 127.456C426.229 127.456 426.186 127.776 426.101 128.416C426.015 129.013 425.887 129.803 425.717 130.784C425.589 131.723 425.439 132.747 425.269 133.856C425.098 134.965 424.927 136.011 424.757 136.992C424.629 137.973 424.522 138.784 424.437 139.424C424.351 140.021 424.309 140.32 424.309 140.32H422.901ZM442.485 92.96C441.333 93.0027 440.309 93.344 439.413 93.984C438.559 94.5813 437.813 95.3707 437.173 96.352C435.21 99.2533 433.205 104.352 431.157 111.648C429.109 118.944 426.826 128.501 424.309 140.32L423.413 138.528C424.053 135.669 424.735 132.597 425.461 129.312C426.186 125.984 426.954 122.656 427.765 119.328C428.618 116 429.471 112.821 430.325 109.792C431.221 106.763 432.138 104.053 433.077 101.664C434.058 99.232 435.039 97.2907 436.021 95.84C436.831 94.688 437.791 93.728 438.901 92.96C440.01 92.1493 441.354 91.744 442.933 91.744C444.725 91.744 446.047 92.2133 446.901 93.152C447.754 94.048 448.181 95.136 448.181 96.416C448.181 97.9093 447.711 99.2107 446.773 100.32C445.834 101.387 444.597 101.92 443.061 101.92C441.823 101.92 440.885 101.579 440.245 100.896C439.647 100.213 439.349 99.424 439.349 98.528C439.349 97.2907 439.711 96.2027 440.437 95.264C441.205 94.3253 442.143 93.6427 443.253 93.216C443.125 93.1307 442.997 93.0667 442.869 93.024C442.783 92.9813 442.655 92.96 442.485 92.96ZM390.581 143.52C391.775 143.477 392.799 143.136 393.653 142.496C394.549 141.899 395.338 141.088 396.021 140.064C397.258 138.101 398.495 135.029 399.733 130.848C401.013 126.667 402.293 121.611 403.573 115.68C404.895 109.749 406.218 103.243 407.541 96.16L408.628 97.504C407.946 101.003 407.221 104.565 406.453 108.192C405.727 111.776 404.981 115.296 404.213 118.752C403.445 122.165 402.655 125.344 401.845 128.288C401.034 131.232 400.223 133.792 399.413 135.968C398.602 138.101 397.813 139.68 397.045 140.704C396.277 141.728 395.359 142.645 394.293 143.456C393.269 144.309 391.903 144.736 390.197 144.736C388.362 144.736 387.018 144.267 386.164 143.328C385.311 142.432 384.884 141.323 384.884 140C384.884 138.549 385.354 137.291 386.292 136.224C387.231 135.115 388.469 134.56 390.005 134.56C391.284 134.56 392.223 134.901 392.821 135.584C393.418 136.267 393.717 137.056 393.717 137.952C393.717 139.189 393.333 140.277 392.565 141.216C391.839 142.155 390.943 142.837 389.877 143.264C389.962 143.349 390.069 143.413 390.197 143.456C390.325 143.499 390.453 143.52 390.581 143.52ZM292.913 215.4C291.505 217.405 290.716 219.005 290.545 220.2C290.417 221.395 290.801 222.269 291.697 222.824C292.636 223.336 293.958 223.635 295.665 223.72L295.409 225C293.788 224.915 292.316 224.872 290.993 224.872C289.713 224.829 288.497 224.808 287.345 224.808C286.364 224.808 285.532 224.829 284.849 224.872C284.166 224.872 283.484 224.915 282.801 225L283.121 223.72C283.804 223.549 284.486 223.251 285.169 222.824C285.852 222.355 286.598 221.693 287.409 220.84C288.177 219.944 289.073 218.771 290.097 217.32L317.105 179.368C317.489 179.411 317.894 179.432 318.321 179.432C318.79 179.432 319.217 179.411 319.601 179.368L322.161 219.624C322.289 221.16 322.673 222.227 323.313 222.824C323.996 223.379 324.657 223.677 325.297 223.72L325.041 225C324.017 224.915 322.694 224.872 321.073 224.872C319.494 224.829 317.98 224.808 316.529 224.808C314.737 224.808 313.03 224.829 311.409 224.872C309.788 224.872 308.508 224.915 307.569 225L307.825 223.72C309.873 223.635 311.324 223.272 312.177 222.632C313.03 221.949 313.414 220.52 313.329 218.344L311.665 188.136L313.329 186.6L292.913 215.4ZM298.609 206.568H317.297L316.785 207.848H297.457L298.609 206.568ZM376.476 179.688C375.836 181.352 375.175 183.379 374.492 185.768C373.809 188.115 373.105 190.995 372.38 194.408H370.972C371.356 192.232 371.505 190.355 371.42 188.776C371.377 187.155 371.057 185.789 370.46 184.68C369.649 183.144 368.54 182.013 367.132 181.288C365.767 180.563 364.252 180.2 362.588 180.2C360.455 180.2 358.364 180.797 356.316 181.992C354.311 183.187 352.455 184.829 350.748 186.92C349.041 189.011 347.527 191.4 346.204 194.088C344.924 196.776 343.921 199.635 343.196 202.664C342.471 205.651 342.108 208.637 342.108 211.624C342.108 215.891 342.897 219.069 344.476 221.16C346.097 223.208 348.273 224.232 351.004 224.232C352.625 224.232 354.375 223.848 356.252 223.08C358.129 222.312 359.751 221.203 361.116 219.752C362.268 218.557 363.249 217.192 364.06 215.656C364.913 214.12 365.852 212.115 366.876 209.64H368.284C367.217 213.523 366.385 216.659 365.788 219.048C365.233 221.395 364.807 223.379 364.508 225H363.1C363.228 224.104 363.292 223.379 363.292 222.824C363.292 221.885 363.121 221.352 362.78 221.224C362.439 221.096 361.905 221.267 361.18 221.736C360.071 222.504 358.897 223.208 357.66 223.848C356.423 224.445 355.079 224.936 353.628 225.32C352.22 225.704 350.62 225.896 348.828 225.896C343.409 225.896 339.313 224.552 336.54 221.864C333.767 219.176 332.38 215.336 332.38 210.344C332.38 207.357 332.849 204.371 333.788 201.384C334.769 198.397 336.135 195.56 337.884 192.872C339.676 190.141 341.788 187.731 344.22 185.64C346.695 183.507 349.425 181.843 352.412 180.648C355.441 179.411 358.684 178.792 362.14 178.792C363.932 178.792 365.404 179.005 366.556 179.432C367.708 179.816 368.689 180.328 369.5 180.968C370.311 181.565 371.015 182.227 371.612 182.952C372.209 183.592 372.785 183.677 373.34 183.208C373.895 182.696 374.492 181.523 375.132 179.688H376.476ZM420.289 179.688C419.649 181.352 418.987 183.379 418.305 185.768C417.622 188.115 416.918 190.995 416.193 194.408H414.785C415.169 192.232 415.318 190.355 415.233 188.776C415.19 187.155 414.87 185.789 414.273 184.68C413.462 183.144 412.353 182.013 410.944 181.288C409.579 180.563 408.065 180.2 406.401 180.2C404.267 180.2 402.177 180.797 400.129 181.992C398.123 183.187 396.267 184.829 394.561 186.92C392.854 189.011 391.339 191.4 390.017 194.088C388.737 196.776 387.734 199.635 387.009 202.664C386.283 205.651 385.921 208.637 385.921 211.624C385.921 215.891 386.71 219.069 388.289 221.16C389.91 223.208 392.086 224.232 394.817 224.232C396.438 224.232 398.187 223.848 400.065 223.08C401.942 222.312 403.563 221.203 404.929 219.752C406.081 218.557 407.062 217.192 407.873 215.656C408.726 214.12 409.665 212.115 410.689 209.64H412.097C411.03 213.523 410.198 216.659 409.601 219.048C409.046 221.395 408.619 223.379 408.321 225H406.913C407.041 224.104 407.104 223.379 407.104 222.824C407.104 221.885 406.934 221.352 406.593 221.224C406.251 221.096 405.718 221.267 404.993 221.736C403.883 222.504 402.71 223.208 401.473 223.848C400.235 224.445 398.891 224.936 397.441 225.32C396.033 225.704 394.433 225.896 392.641 225.896C387.222 225.896 383.126 224.552 380.353 221.864C377.579 219.176 376.193 215.336 376.193 210.344C376.193 207.357 376.662 204.371 377.601 201.384C378.582 198.397 379.947 195.56 381.697 192.872C383.489 190.141 385.601 187.731 388.033 185.64C390.507 183.507 393.238 181.843 396.225 180.648C399.254 179.411 402.497 178.792 405.953 178.792C407.745 178.792 409.217 179.005 410.369 179.432C411.521 179.816 412.502 180.328 413.312 180.968C414.123 181.565 414.827 182.227 415.425 182.952C416.022 183.592 416.598 183.677 417.153 183.208C417.707 182.696 418.305 181.523 418.945 179.688H420.289ZM431.013 202.856L431.333 201.576H443.429L443.109 202.856H431.013ZM437.669 201.576C438.906 201.576 439.973 201.341 440.869 200.872C441.808 200.36 442.597 199.699 443.237 198.888C443.92 198.077 444.496 197.224 444.965 196.328C445.477 195.389 445.904 194.493 446.245 193.64H447.653C446.97 195.773 446.48 197.437 446.181 198.632C445.882 199.827 445.562 201.021 445.221 202.216C445.05 202.984 444.858 203.731 444.645 204.456C444.474 205.181 444.282 206.035 444.069 207.016C443.898 207.997 443.664 209.256 443.365 210.792H441.893C441.978 209.896 442.021 208.979 442.021 208.04C442.021 207.101 441.872 206.248 441.573 205.48C441.317 204.712 440.826 204.093 440.101 203.624C439.418 203.112 438.416 202.856 437.093 202.856L437.669 201.576ZM454.693 191.208C454.992 188.691 454.992 186.707 454.693 185.256C454.394 183.763 453.733 182.717 452.709 182.12C451.685 181.48 450.149 181.16 448.101 181.16H445.221C443.77 181.16 442.64 181.288 441.829 181.544C441.061 181.757 440.442 182.248 439.973 183.016C439.546 183.741 439.12 184.893 438.693 186.472L430.181 218.216C429.797 219.752 429.626 220.904 429.669 221.672C429.712 222.44 430.074 222.952 430.757 223.208C431.44 223.421 432.506 223.528 433.957 223.528H437.093C439.525 223.528 441.53 223.165 443.109 222.44C444.688 221.715 446.074 220.541 447.269 218.92C448.464 217.256 449.637 215.016 450.789 212.2H452.197C451.984 212.755 451.749 213.437 451.493 214.248C451.28 215.059 451.066 215.912 450.853 216.808C450.64 217.619 450.362 218.792 450.021 220.328C449.68 221.821 449.381 223.379 449.125 225C446.949 224.915 444.496 224.872 441.765 224.872C439.077 224.829 436.666 224.808 434.533 224.808C433.509 224.808 432.208 224.808 430.629 224.808C429.05 224.808 427.322 224.829 425.445 224.872C423.61 224.872 421.754 224.893 419.877 224.936C418 224.936 416.229 224.957 414.565 225L414.821 223.72C416.272 223.635 417.402 223.464 418.213 223.208C419.024 222.952 419.664 222.44 420.133 221.672C420.602 220.904 421.029 219.752 421.413 218.216L429.925 186.472C430.352 184.893 430.522 183.741 430.437 183.016C430.394 182.248 430.032 181.736 429.349 181.48C428.709 181.181 427.664 181.011 426.213 180.968L426.533 179.688C428.197 179.731 429.968 179.773 431.845 179.816C433.722 179.816 435.578 179.837 437.413 179.88C439.29 179.88 441.018 179.88 442.597 179.88C444.176 179.88 445.477 179.88 446.501 179.88C448.421 179.88 450.576 179.88 452.965 179.88C455.354 179.837 457.53 179.773 459.493 179.688C458.938 181.181 458.448 182.568 458.021 183.848C457.637 185.085 457.317 186.216 457.061 187.24C456.848 188.008 456.656 188.755 456.485 189.48C456.357 190.163 456.25 190.739 456.165 191.208H454.693ZM495.595 179.24C495.168 180.349 494.592 181.971 493.867 184.104C493.184 186.195 492.502 188.925 491.819 192.296H490.539C490.667 191.699 490.752 191.08 490.795 190.44C490.88 189.8 490.923 189.224 490.923 188.712C490.923 187.048 490.582 185.597 489.899 184.36C489.259 183.08 488.256 182.077 486.891 181.352C485.568 180.584 483.862 180.2 481.771 180.2C479.51 180.2 477.59 180.797 476.011 181.992C474.432 183.144 473.643 185 473.643 187.56C473.643 189.139 474.006 190.632 474.731 192.04C475.499 193.405 476.459 194.749 477.611 196.072C478.806 197.352 480.064 198.653 481.387 199.976C482.71 201.256 483.947 202.579 485.099 203.944C486.251 205.309 487.19 206.76 487.915 208.296C488.683 209.789 489.067 211.432 489.067 213.224C489.067 215.485 488.512 217.427 487.403 219.048C486.336 220.627 484.95 221.928 483.243 222.952C481.536 223.933 479.68 224.659 477.675 225.128C475.712 225.64 473.792 225.896 471.915 225.896C469.995 225.896 468.395 225.747 467.115 225.448C465.878 225.192 464.832 224.829 463.979 224.36C463.126 223.891 462.294 223.421 461.483 222.952C461.056 222.611 460.63 222.376 460.203 222.248C459.819 222.077 459.499 221.992 459.243 221.992C458.688 221.992 458.219 222.269 457.835 222.824C457.494 223.336 457.067 224.211 456.555 225.448H455.275C455.659 224.509 456.064 223.421 456.491 222.184C456.918 220.947 457.387 219.368 457.899 217.448C458.411 215.485 458.987 213.032 459.627 210.088H460.907C460.736 210.899 460.587 211.752 460.459 212.648C460.331 213.501 460.288 214.355 460.331 215.208C460.459 218.195 461.376 220.499 463.083 222.12C464.832 223.741 467.392 224.552 470.763 224.552C473.622 224.552 475.776 223.955 477.227 222.76C478.678 221.523 479.403 219.731 479.403 217.384C479.403 215.592 479.062 213.971 478.379 212.52C477.739 211.027 476.886 209.64 475.819 208.36C474.752 207.08 473.622 205.821 472.427 204.584C471.232 203.347 470.102 202.088 469.035 200.808C467.968 199.485 467.094 198.077 466.411 196.584C465.728 195.048 465.387 193.341 465.387 191.464C465.387 189.331 465.835 187.475 466.731 185.896C467.67 184.317 468.864 183.016 470.315 181.992C471.808 180.925 473.451 180.136 475.243 179.624C477.035 179.069 478.806 178.792 480.555 178.792C482.859 178.792 484.758 179.069 486.251 179.624C487.744 180.179 489.024 180.84 490.091 181.608C490.56 181.907 490.966 182.163 491.307 182.376C491.691 182.547 491.99 182.632 492.203 182.632C492.8 182.632 493.504 181.501 494.315 179.24H495.595ZM532.47 179.24C532.043 180.349 531.467 181.971 530.742 184.104C530.059 186.195 529.377 188.925 528.694 192.296H527.414C527.542 191.699 527.627 191.08 527.67 190.44C527.755 189.8 527.798 189.224 527.798 188.712C527.798 187.048 527.457 185.597 526.774 184.36C526.134 183.08 525.131 182.077 523.766 181.352C522.443 180.584 520.737 180.2 518.646 180.2C516.385 180.2 514.465 180.797 512.886 181.992C511.307 183.144 510.518 185 510.518 187.56C510.518 189.139 510.881 190.632 511.606 192.04C512.374 193.405 513.334 194.749 514.486 196.072C515.681 197.352 516.939 198.653 518.262 199.976C519.585 201.256 520.822 202.579 521.974 203.944C523.126 205.309 524.065 206.76 524.79 208.296C525.558 209.789 525.942 211.432 525.942 213.224C525.942 215.485 525.387 217.427 524.278 219.048C523.211 220.627 521.825 221.928 520.118 222.952C518.411 223.933 516.555 224.659 514.55 225.128C512.587 225.64 510.667 225.896 508.79 225.896C506.87 225.896 505.27 225.747 503.99 225.448C502.753 225.192 501.707 224.829 500.854 224.36C500.001 223.891 499.169 223.421 498.358 222.952C497.931 222.611 497.505 222.376 497.078 222.248C496.694 222.077 496.374 221.992 496.118 221.992C495.563 221.992 495.094 222.269 494.71 222.824C494.369 223.336 493.942 224.211 493.43 225.448H492.15C492.534 224.509 492.939 223.421 493.366 222.184C493.793 220.947 494.262 219.368 494.774 217.448C495.286 215.485 495.862 213.032 496.502 210.088H497.782C497.611 210.899 497.462 211.752 497.334 212.648C497.206 213.501 497.163 214.355 497.206 215.208C497.334 218.195 498.251 220.499 499.958 222.12C501.707 223.741 504.267 224.552 507.638 224.552C510.497 224.552 512.651 223.955 514.102 222.76C515.553 221.523 516.278 219.731 516.278 217.384C516.278 215.592 515.937 213.971 515.254 212.52C514.614 211.027 513.761 209.64 512.694 208.36C511.627 207.08 510.497 205.821 509.302 204.584C508.107 203.347 506.977 202.088 505.91 200.808C504.843 199.485 503.969 198.077 503.286 196.584C502.603 195.048 502.262 193.341 502.262 191.464C502.262 189.331 502.71 187.475 503.606 185.896C504.545 184.317 505.739 183.016 507.19 181.992C508.683 180.925 510.326 180.136 512.118 179.624C513.91 179.069 515.681 178.792 517.43 178.792C519.734 178.792 521.633 179.069 523.126 179.624C524.619 180.179 525.899 180.84 526.966 181.608C527.435 181.907 527.841 182.163 528.182 182.376C528.566 182.547 528.865 182.632 529.078 182.632C529.675 182.632 530.379 181.501 531.19 179.24H532.47ZM561.217 179.944C559.382 179.944 557.569 180.541 555.777 181.736C554.028 182.888 552.385 184.509 550.849 186.6C549.356 188.648 548.033 191.016 546.881 193.704C545.729 196.349 544.812 199.187 544.129 202.216C543.489 205.245 543.169 208.296 543.169 211.368C543.169 215.549 543.873 218.835 545.281 221.224C546.689 223.571 548.502 224.744 550.721 224.744C552.556 224.744 554.348 224.168 556.097 223.016C557.889 221.821 559.532 220.2 561.025 218.152C562.561 216.061 563.905 213.693 565.057 211.048C566.209 208.36 567.105 205.501 567.745 202.472C568.428 199.443 568.769 196.392 568.769 193.32C568.769 189.139 568.065 185.875 566.657 183.528C565.249 181.139 563.436 179.944 561.217 179.944ZM533.569 210.536C533.569 207.72 533.996 204.819 534.849 201.832C535.702 198.845 536.94 195.987 538.561 193.256C540.182 190.525 542.145 188.072 544.449 185.896C546.796 183.72 549.42 181.992 552.321 180.712C555.222 179.432 558.38 178.792 561.793 178.792C566.998 178.792 571.073 180.136 574.017 182.824C576.961 185.469 578.433 189.267 578.433 194.216C578.433 197.032 577.985 199.933 577.089 202.92C576.236 205.864 574.998 208.701 573.377 211.432C571.756 214.163 569.772 216.616 567.425 218.792C565.121 220.968 562.497 222.696 559.553 223.976C556.652 225.256 553.516 225.896 550.145 225.896C544.94 225.896 540.865 224.573 537.921 221.928C535.02 219.24 533.569 215.443 533.569 210.536ZM595.825 202.344C597.446 202.387 598.747 202.451 599.729 202.536C600.753 202.621 601.585 202.707 602.225 202.792C602.907 202.835 603.569 202.92 604.209 203.048C605.873 203.219 607.366 203.475 608.689 203.816C610.011 204.115 611.142 204.584 612.081 205.224C613.019 205.864 613.702 206.696 614.129 207.72C614.555 208.744 614.662 210.067 614.449 211.688L613.745 218.28C613.574 219.603 613.617 220.733 613.873 221.672C614.171 222.611 614.79 223.059 615.729 223.016C616.539 222.973 617.243 222.547 617.841 221.736C618.438 220.883 619.014 219.688 619.569 218.152L619.889 217.256H621.361L621.105 218.088C620.337 220.733 619.249 222.696 617.841 223.976C616.433 225.256 614.513 225.896 612.081 225.896C609.393 225.896 607.473 225.235 606.321 223.912C605.169 222.547 604.721 220.861 604.977 218.856L605.745 211.688C605.958 209.725 605.851 208.147 605.425 206.952C605.041 205.715 604.102 204.819 602.609 204.264C601.158 203.667 598.854 203.368 595.697 203.368L595.825 202.344ZM594.929 203.304L595.249 202.152H597.617C600.049 202.152 602.182 201.832 604.017 201.192C605.894 200.509 607.473 199.549 608.753 198.312C610.033 197.075 610.993 195.581 611.632 193.832C612.315 192.083 612.657 190.12 612.657 187.944C612.657 185.555 612.123 183.805 611.057 182.696C609.99 181.544 608.305 180.968 606.001 180.968C604.507 180.968 603.419 181.288 602.737 181.928C602.097 182.525 601.542 183.741 601.073 185.576L592.369 218.216C592.027 219.539 591.835 220.584 591.793 221.352C591.75 222.12 592.049 222.696 592.689 223.08C593.371 223.464 594.523 223.677 596.145 223.72L595.889 225C594.737 224.915 593.35 224.872 591.729 224.872C590.107 224.829 588.379 224.808 586.545 224.808C584.667 224.808 582.833 224.829 581.041 224.872C579.291 224.872 577.883 224.915 576.816 225L577.072 223.72C578.523 223.635 579.654 223.464 580.465 223.208C581.275 222.952 581.915 222.44 582.385 221.672C582.854 220.904 583.281 219.752 583.665 218.216L592.113 186.472C592.454 185.149 592.625 184.104 592.625 183.336C592.625 182.525 592.305 181.949 591.665 181.608C591.025 181.224 589.915 181.011 588.337 180.968L588.657 179.688C589.339 179.731 590.193 179.773 591.217 179.816C592.241 179.816 593.329 179.837 594.481 179.88C595.675 179.88 596.763 179.88 597.745 179.88C599.579 179.88 601.243 179.859 602.737 179.816C604.273 179.773 605.787 179.752 607.281 179.752C612.187 179.752 615.814 180.52 618.161 182.056C620.507 183.549 621.681 185.768 621.681 188.712C621.681 191.613 620.657 194.152 618.609 196.328C616.603 198.504 613.787 200.211 610.161 201.448C606.534 202.643 602.31 203.24 597.489 203.24L594.929 203.304ZM636.869 218.216C636.485 219.752 636.314 220.904 636.357 221.672C636.399 222.44 636.762 222.952 637.445 223.208C638.127 223.464 639.194 223.635 640.645 223.72L640.389 225C639.279 224.915 637.85 224.872 636.101 224.872C634.351 224.829 632.559 224.808 630.725 224.808C628.805 224.808 627.013 224.829 625.349 224.872C623.727 224.872 622.383 224.915 621.316 225L621.636 223.72C623.044 223.635 624.133 223.464 624.901 223.208C625.711 222.952 626.351 222.44 626.821 221.672C627.29 220.904 627.717 219.752 628.101 218.216L636.549 186.472C636.975 184.893 637.146 183.741 637.061 183.016C636.975 182.248 636.591 181.736 635.909 181.48C635.269 181.181 634.223 181.011 632.773 180.968L633.093 179.688C634.117 179.731 635.461 179.773 637.125 179.816C638.789 179.859 640.581 179.88 642.501 179.88C644.335 179.88 646.106 179.859 647.813 179.816C649.519 179.773 650.991 179.731 652.229 179.688L651.909 180.968C650.458 181.011 649.327 181.181 648.517 181.48C647.706 181.736 647.066 182.248 646.597 183.016C646.17 183.741 645.743 184.893 645.317 186.472L636.869 218.216ZM661.576 202.856L661.896 201.576H673.992L673.672 202.856H661.576ZM668.232 201.576C669.469 201.576 670.536 201.341 671.432 200.872C672.37 200.36 673.16 199.699 673.8 198.888C674.482 198.077 675.058 197.224 675.528 196.328C676.04 195.389 676.466 194.493 676.808 193.64H678.216C677.533 195.773 677.042 197.437 676.744 198.632C676.445 199.827 676.125 201.021 675.784 202.216C675.613 202.984 675.421 203.731 675.208 204.456C675.037 205.181 674.845 206.035 674.632 207.016C674.461 207.997 674.226 209.256 673.928 210.792H672.456C672.541 209.896 672.584 208.979 672.584 208.04C672.584 207.101 672.434 206.248 672.136 205.48C671.88 204.712 671.389 204.093 670.664 203.624C669.981 203.112 668.978 202.856 667.656 202.856L668.232 201.576ZM685.256 191.208C685.554 188.691 685.554 186.707 685.256 185.256C684.957 183.763 684.296 182.717 683.272 182.12C682.248 181.48 680.712 181.16 678.664 181.16H675.784C674.333 181.16 673.202 181.288 672.392 181.544C671.624 181.757 671.005 182.248 670.536 183.016C670.109 183.741 669.682 184.893 669.256 186.472L660.744 218.216C660.36 219.752 660.189 220.904 660.232 221.672C660.274 222.44 660.637 222.952 661.32 223.208C662.002 223.421 663.069 223.528 664.52 223.528H667.656C670.088 223.528 672.093 223.165 673.672 222.44C675.25 221.715 676.637 220.541 677.832 218.92C679.026 217.256 680.2 215.016 681.352 212.2H682.76C682.546 212.755 682.312 213.437 682.056 214.248C681.842 215.059 681.629 215.912 681.416 216.808C681.202 217.619 680.925 218.792 680.583 220.328C680.242 221.821 679.944 223.379 679.688 225C677.512 224.915 675.058 224.872 672.328 224.872C669.64 224.829 667.229 224.808 665.096 224.808C664.072 224.808 662.77 224.808 661.192 224.808C659.613 224.808 657.885 224.829 656.008 224.872C654.173 224.872 652.317 224.893 650.44 224.936C648.562 224.936 646.791 224.957 645.127 225L645.383 223.72C646.834 223.635 647.965 223.464 648.776 223.208C649.586 222.952 650.226 222.44 650.696 221.672C651.165 220.904 651.592 219.752 651.976 218.216L660.488 186.472C660.914 184.893 661.085 183.741 661 183.016C660.957 182.248 660.594 181.736 659.912 181.48C659.272 181.181 658.226 181.011 656.776 180.968L657.095 179.688C658.76 179.731 660.53 179.773 662.408 179.816C664.285 179.816 666.141 179.837 667.976 179.88C669.853 179.88 671.581 179.88 673.16 179.88C674.738 179.88 676.04 179.88 677.064 179.88C678.984 179.88 681.138 179.88 683.528 179.88C685.917 179.837 688.093 179.773 690.056 179.688C689.501 181.181 689.01 182.568 688.584 183.848C688.2 185.085 687.88 186.216 687.624 187.24C687.41 188.008 687.218 188.755 687.048 189.48C686.92 190.163 686.813 190.739 686.728 191.208H685.256ZM726.158 179.24C725.731 180.349 725.155 181.971 724.43 184.104C723.747 186.195 723.064 188.925 722.382 192.296H721.102C721.23 191.699 721.315 191.08 721.358 190.44C721.443 189.8 721.486 189.224 721.486 188.712C721.486 187.048 721.144 185.597 720.462 184.36C719.822 183.08 718.819 182.077 717.454 181.352C716.131 180.584 714.424 180.2 712.334 180.2C710.072 180.2 708.152 180.797 706.574 181.992C704.995 183.144 704.206 185 704.206 187.56C704.206 189.139 704.568 190.632 705.294 192.04C706.062 193.405 707.022 194.749 708.174 196.072C709.368 197.352 710.627 198.653 711.95 199.976C713.272 201.256 714.51 202.579 715.662 203.944C716.814 205.309 717.752 206.76 718.478 208.296C719.246 209.789 719.63 211.432 719.63 213.224C719.63 215.485 719.075 217.427 717.966 219.048C716.899 220.627 715.512 221.928 713.806 222.952C712.099 223.933 710.243 224.659 708.238 225.128C706.275 225.64 704.355 225.896 702.478 225.896C700.558 225.896 698.958 225.747 697.678 225.448C696.44 225.192 695.395 224.829 694.542 224.36C693.688 223.891 692.856 223.421 692.046 222.952C691.619 222.611 691.192 222.376 690.766 222.248C690.382 222.077 690.062 221.992 689.806 221.992C689.251 221.992 688.782 222.269 688.398 222.824C688.056 223.336 687.63 224.211 687.117 225.448H685.837C686.221 224.509 686.627 223.421 687.053 222.184C687.48 220.947 687.95 219.368 688.462 217.448C688.974 215.485 689.55 213.032 690.19 210.088H691.47C691.299 210.899 691.15 211.752 691.022 212.648C690.894 213.501 690.851 214.355 690.894 215.208C691.022 218.195 691.939 220.499 693.646 222.12C695.395 223.741 697.955 224.552 701.326 224.552C704.184 224.552 706.339 223.955 707.79 222.76C709.24 221.523 709.966 219.731 709.966 217.384C709.966 215.592 709.624 213.971 708.942 212.52C708.302 211.027 707.448 209.64 706.382 208.36C705.315 207.08 704.184 205.821 702.99 204.584C701.795 203.347 700.664 202.088 699.598 200.808C698.531 199.485 697.656 198.077 696.974 196.584C696.291 195.048 695.95 193.341 695.95 191.464C695.95 189.331 696.398 187.475 697.294 185.896C698.232 184.317 699.427 183.016 700.878 181.992C702.371 180.925 704.014 180.136 705.806 179.624C707.598 179.069 709.368 178.792 711.118 178.792C713.422 178.792 715.32 179.069 716.814 179.624C718.307 180.179 719.587 180.84 720.654 181.608C721.123 181.907 721.528 182.163 721.87 182.376C722.254 182.547 722.552 182.632 722.766 182.632C723.363 182.632 724.067 181.501 724.878 179.24H726.158Z" fill="black"/>
</svg>
